# xmcd
#
# Track frame offsets:
#	150
#	11549
#	26092
#	39164
#	48823
#	64055
#	73916
#	87820
#	102329
#	117173
#	130210
#	145474
#	159213
#
# Disc length: 2323 seconds
#
# Revision: 0
# Processed by: cddbd v1.5.1PL0 Copyright (c) Steve Scherf et al.
# Submitted via: audiograbber 1.83.01
#
DISCID=a709110d
DTITLE=Beth Carvalho - Na Fonte
DYEAR=1981
DGENRE=Blues
TTITLE0=Virada
TTITLE1=Escasseia
TTITLE2=Grande Erro
TTITLE3=Salve A Magueira
TTITLE4=Morrendo De Saudade
TTITLE5=Motivação
TTITLE6=Gorjear Da Passarada
TTITLE7=Pedaço De Ilusão
TTITLE8=É, Pois É
TTITLE9=Dança Da Solidão
TTITLE10=Tendência
TTITLE11=Deus Me Fez Assim
TTITLE12=Alpendre Da Saudade
EXTD=
EXTT0=
EXTT1=
EXTT2=
EXTT3=
EXTT4=
EXTT5=
EXTT6=
EXTT7=
EXTT8=
EXTT9=
EXTT10=
EXTT11=
EXTT12=
PLAYORDER=
